<?xml version="1.0" encoding="UTF-8"?>
<svg id="Layer_1" xmlns="http://www.w3.org/2000/svg" version="1.1" viewBox="0 0 159 40">
  <!-- Generator: Adobe Illustrator 29.7.1, SVG Export Plug-In . SVG Version: 2.1.1 Build 8)  -->
  <defs>
    <style>
      .st0 {
        fill-rule: evenodd;
      }

      .st0, .st1 {
        fill: #fff;
      }
    </style>
  </defs>
  <path class="st1" d="M91.44,11.18c-.12.62-.37,1.49-.59,1.86.56-.43,1.71-.99,3.33-.99,3.51,0,5.6,2.64,4.41,8.02-.72,3.23-2.3,5.84-4.76,7.49-1.43.96-2.83,1.34-4.6,1.34-3.23,0-5.19-.59-6.9-1.25.25-.43.56-1.62.68-2.24l2.74-13c.78-3.76.87-4.76.78-5.82l5.69-.96c.03.93-.06,2.11-.43,3.92l-.34,1.62ZM91.75,16.41c-.81,0-1.31.5-1.59.78l-1.49,7.12c.25.22.72.37,1.28.37,1.37,0,2.18-1.34,2.8-4.32.65-3.17.22-3.95-1-3.95Z"/>
  <path class="st1" d="M129.21,12.05c4.01,0,4.42,2.27,3.92,4.6l-2.52,11.85h-5.41l2.18-10.26c.28-1.24.12-1.8-.78-1.8s-1.55.43-2.24,1.49l-2.27,10.57h-5.41l2.14-10.11c.53-2.43.69-3.86.44-5.44l4.79-.9c.12.53.25,1.09.28,1.74,1.24-1.09,3.11-1.74,4.88-1.74Z"/>
  <path class="st0" d="M19.2,20.63c.03-.1.06-.29.13-.54v-.73c0-2.33-1.56-3.88-4.65-4.71l-2.17-.57c-1.18-.32-1.78-.89-1.78-1.72,0-.61.29-1.08.83-1.43.54-.32,1.15-.48,1.81-.48,1.75,0,3.31.51,4.75,1.5l3.5-4.11c-1.75-1.37-4.24-2.04-7.45-2.04-2.48,0-4.68.7-6.62,2.07-1.91,1.37-3.06,3.12-3.53,5.25-.1.38-.16.83-.16,1.34,0,2.52,1.4,4.17,4.2,4.94l2.45.67c1.27.35,1.88.92,1.88,1.59,0,.86-.41,1.5-1.21,1.91-.67.35-1.43.51-2.36.51-2.13,0-4.11-.6-5.86-1.78l-2.96,4.46c2.26,1.34,4.84,2.01,7.74,2.01s5.41-.7,7.48-2.07c2.13-1.43,3.47-3.47,3.98-6.05Z"/>
  <path class="st0" d="M26.56,21.88c.32.1.96.13,1.94.13,2.58,0,4.59-.57,6.05-1.75,1.43-1.15,2.17-2.52,2.17-4.08s-.61-2.8-1.81-3.6c-1.05-.73-2.52-1.08-4.39-1.08-2.96,0-5.32,1.12-7.1,3.34-1.72,2.13-2.55,4.78-2.55,7.9,0,2.07.54,3.6,1.66,4.59,1.11.99,2.83,1.46,5.19,1.46,2.04,0,4.3-.67,6.75-2.04l-1.08-3.47c-1.62,1.08-3.19,1.62-4.62,1.62-.54,0-.93-.06-1.21-.16-.29-.1-.48-.16-.57-.26-.35-.32-.51-.86-.51-1.62l.09-.98ZM27.46,18.18c.42-1.88,1.24-2.8,2.52-2.8.83,0,1.24.38,1.24,1.15,0,.54-.29.99-.83,1.34-.54.32-1.11.48-1.78.48-.48,0-.86-.06-1.14-.16Z"/>
  <path class="st0" d="M106.32,21.88c.32.1.96.13,1.94.13,2.58,0,4.59-.57,6.05-1.75,1.43-1.15,2.17-2.52,2.17-4.08s-.61-2.8-1.81-3.6c-1.05-.73-2.51-1.08-4.39-1.08-2.96,0-5.32,1.12-7.1,3.34-1.72,2.13-2.55,4.78-2.55,7.9,0,2.07.54,3.6,1.65,4.59,1.11.99,2.84,1.46,5.19,1.46,2.04,0,4.3-.67,6.75-2.04l-1.08-3.47c-1.62,1.08-3.19,1.62-4.62,1.62-.54,0-.92-.06-1.21-.16-.29-.1-.48-.16-.57-.26-.35-.32-.51-.86-.51-1.62l.1-.98ZM107.21,18.18c.41-1.88,1.24-2.8,2.52-2.8.83,0,1.24.38,1.24,1.15,0,.54-.29.99-.83,1.34-.54.32-1.11.48-1.78.48-.48,0-.86-.06-1.15-.16Z"/>
  <path class="st0" d="M53.14,19.33c.19-.92.32-1.78.32-2.61,0-3.47-1.49-5.19-4.52-5.19-1.72,0-3.31.6-4.75,1.78,0-.29-.03-.64-.1-.99-.03-.35-.1-.6-.16-.79l-4.9.92c.03.13.06.32.13.57v.89c0,.99-.19,2.36-.57,4.11l-3.73,17.61,5.86-1.5.7-3.37c.26-1.24.35-2.07.29-2.52.8.35,1.59.54,2.45.54,4.65,0,7.64-3.16,8.98-9.46ZM46.52,15.95c.67,0,1.02.41,1.02,1.24,0,.35-.13,1.24-.42,2.61-.41,1.97-.95,3.28-1.53,3.92-.45.48-1.05.7-1.78.7-.6,0-.92-.16-.95-.45l1.4-6.43c.67-1.05,1.43-1.59,2.26-1.59Z"/>
  <path class="st0" d="M64.28,7.04l-5.67.83c-.28.83-.64,2.2-1.05,4.08h-1.34l-.79,3.63h1.34l-1.91,8.95c-.06.26-.1.51-.13.76-.03.22-.03.44-.03.64,0,1.11.42,1.88,1.24,2.33.7.38,1.85.57,3.44.57,1.27,0,2.64-.32,4.11-.96l.03-3.18c-.45.22-.92.32-1.46.32-.92,0-1.37-.38-1.37-1.14l.22-1.66,1.4-6.62h2.29l1.5-3.63h-2.99c.48-2.32.89-3.98,1.18-4.9Z"/>
  <path class="st0" d="M156.28,7.55c0,.11-.02.21-.06.3-.04.09-.11.18-.2.25-.17.15-.42.23-.75.23h-.32l.28-1.32h.39c.22,0,.39.04.5.13.11.09.17.22.17.4ZM155.68,8.76c.08,0,.16,0,.24-.03.08-.02.16-.05.24-.09.08-.03.15-.08.22-.12.07-.05.13-.1.19-.17.12-.12.22-.26.28-.41.06-.15.09-.31.09-.49,0-.66-.44-.99-1.31-.99h-.93l-.87,4.08h.63l.38-1.77c.05,0,.1.02.15.05.05.03.1.08.14.15.1.14.22.34.36.62.14.27.3.61.48,1.03l.56-.17c-.06-.16-.12-.31-.17-.46-.06-.15-.12-.29-.19-.42-.1-.2-.19-.38-.28-.51-.08-.13-.16-.23-.23-.3ZM151.81,8.55c-.03.14-.05.27-.07.41-.01.13-.02.26-.02.38,0,.41.07.78.2,1.11.14.33.34.63.61.89.54.52,1.23.77,2.06.77.29,0,.57-.02.84-.06.26-.04.52-.11.76-.19.24-.08.46-.19.68-.32.21-.13.42-.27.61-.44.37-.32.67-.69.9-1.11.24-.42.41-.89.52-1.42.03-.13.05-.27.06-.39.01-.13.02-.25.02-.37,0-.41-.07-.77-.2-1.11-.14-.33-.34-.63-.61-.89-.27-.26-.58-.46-.92-.59-.35-.13-.73-.19-1.15-.19-1.1,0-2.04.34-2.84,1.02-.38.33-.69.7-.94,1.13-.25.42-.42.89-.53,1.4ZM152.44,8.55c.1-.43.25-.83.46-1.19.21-.36.49-.69.82-.98.66-.57,1.42-.86,2.29-.86.35,0,.66.05.94.16.28.11.53.27.75.49.21.21.38.46.49.74.11.28.16.59.16.93,0,.11,0,.22-.02.34-.01.12-.03.25-.06.38-.1.45-.25.85-.45,1.21-.2.36-.46.67-.77.95-.33.3-.69.52-1.08.66-.39.14-.81.22-1.26.22-.35,0-.66-.05-.95-.16-.28-.11-.54-.26-.76-.48-.21-.22-.38-.46-.49-.74-.11-.28-.16-.59-.16-.93,0-.11,0-.22.02-.34,0-.12.03-.25.06-.38Z"/>
  <path class="st0" d="M140.41,21.88c.32.1.96.13,1.94.13,2.58,0,4.58-.57,6.05-1.75,1.43-1.15,2.17-2.52,2.17-4.08s-.6-2.8-1.81-3.6c-1.05-.73-2.52-1.08-4.4-1.08-2.96,0-5.32,1.12-7.1,3.34-1.72,2.13-2.55,4.78-2.55,7.9,0,2.07.54,3.6,1.66,4.59,1.11.99,2.84,1.46,5.19,1.46,2.04,0,4.3-.67,6.75-2.04l-1.09-3.47c-1.62,1.08-3.18,1.62-4.62,1.62-.54,0-.92-.06-1.21-.16-.29-.1-.48-.16-.57-.26-.35-.32-.51-.86-.51-1.62l.1-.98ZM141.31,18.18c.41-1.88,1.24-2.8,2.51-2.8.83,0,1.24.38,1.24,1.15,0,.54-.28.99-.83,1.34-.54.32-1.11.48-1.78.48-.48,0-.86-.06-1.15-.16Z"/>
  <path class="st1" d="M81.14,17.25l-1.21,5.77c-.13.53-.1,1.65.62,2.42l-4.38,3.51c-.65-.34-1.12-1.3-1.21-1.89-.71.74-2.3,1.77-4.16,1.77-3.26,0-4.62-2.05-4.62-5.46s1.37-6.95,3.44-9.03c1.83-1.83,3.79-2.42,6.61-2.42,2.2,0,4.93.37,6.11.96-.46,1.12-.93,3.05-1.21,4.38ZM75.39,15.92c-.4,0-1.18-.03-1.95.87-1.15,1.33-1.83,4.47-1.83,6.46,0,1.09.31,1.55,1.05,1.55.65,0,1.77-1.12,1.89-1.64l1.49-7.01c-.18-.16-.46-.22-.65-.22Z"/>
</svg>